<svg xmlns="http://www.w3.org/2000/svg" viewBox="0 0 1040 500" font-family="-apple-system, BlinkMacSystemFont, 'Segoe UI', Roboto, Helvetica, Arial, sans-serif">
  <defs>
    <filter id="soft" x="-20%" y="-20%" width="140%" height="140%">
      <feDropShadow dx="0" dy="2" stdDeviation="3" flood-color="#0f172a" flood-opacity="0.12"/>
    </filter>
  </defs>

  <rect width="1040" height="500" fill="#f8fafc"/>

  <!-- Title -->
  <text x="520" y="52" text-anchor="middle" font-size="29" font-weight="700" fill="#0f172a">Two clocks, ticking at different times</text>
  <text x="520" y="82" text-anchor="middle" font-size="16" fill="#475569">The work gets paid for early; contributors are reimbursed at cost later. Both are "funding."</text>

  <!-- milestone columns: EARLY x=180, DELIVERY x=520, LATER x=860 -->
  <!-- vertical milestone guides -->
  <line x1="180" y1="120" x2="180" y2="430" stroke="#e2e8f0" stroke-width="2" stroke-dasharray="4 4"/>
  <line x1="520" y1="120" x2="520" y2="430" stroke="#e2e8f0" stroke-width="2" stroke-dasharray="4 4"/>
  <line x1="860" y1="120" x2="860" y2="430" stroke="#e2e8f0" stroke-width="2" stroke-dasharray="4 4"/>

  <!-- milestone labels -->
  <text x="180" y="138" text-anchor="middle" font-size="13" font-weight="700" fill="#334155" letter-spacing="0.5">EARLY</text>
  <text x="180" y="158" text-anchor="middle" font-size="12" fill="#94a3b8">scouts fund</text>
  <text x="520" y="138" text-anchor="middle" font-size="13" font-weight="700" fill="#334155" letter-spacing="0.5">DELIVERY</text>
  <text x="520" y="158" text-anchor="middle" font-size="12" fill="#94a3b8">work happens</text>
  <text x="860" y="138" text-anchor="middle" font-size="13" font-weight="700" fill="#334155" letter-spacing="0.5">LATER</text>
  <text x="860" y="158" text-anchor="middle" font-size="12" fill="#94a3b8">donors close the loop</text>

  <!-- ===== Track A: work paid (teal). Fills EARLY->DELIVERY, stays full ===== -->
  <text x="80" y="222" font-size="13" font-weight="700" fill="#0d9488" letter-spacing="0.5">A · WORK PAID FOR</text>
  <rect x="80" y="232" width="880" height="40" rx="8" fill="#ffffff" stroke="#e2e8f0"/>
  <!-- fill from x=80 to DELIVERY=520, then continues full to 960 -->
  <rect x="80" y="232" width="880" height="40" rx="8" fill="#ccfbf1"/>
  <path d="M180 232 L520 232 L520 272 L180 272 Z" fill="#0d9488"/>
  <rect x="520" y="232" width="440" height="40" fill="#0d9488"/>
  <rect x="80" y="232" width="100" height="40" rx="8" fill="#ccfbf1"/>
  <text x="350" y="258" text-anchor="middle" font-size="14" font-weight="700" fill="#ffffff">0 → 100%</text>
  <text x="740" y="258" text-anchor="middle" font-size="14" font-weight="700" fill="#ffffff">stays 100%</text>

  <!-- ===== Track B: reimbursed (amber). Flat 0 until DELIVERY, then 0->100% ===== -->
  <text x="80" y="332" font-size="13" font-weight="700" fill="#d97706" letter-spacing="0.5">B · EARLY CONTRIBUTORS REIMBURSED</text>
  <rect x="80" y="342" width="880" height="40" rx="8" fill="#ffffff" stroke="#e2e8f0"/>
  <!-- empty from 80 to DELIVERY=520, then fills 520->860, full 860->960 -->
  <rect x="520" y="342" width="440" height="40" rx="8" fill="#fef3c7"/>
  <path d="M520 342 L860 342 L860 382 L520 382 Z" fill="#d97706"/>
  <rect x="860" y="342" width="100" height="40" rx="8" fill="#d97706"/>
  <text x="300" y="368" text-anchor="middle" font-size="14" fill="#a16207">still 0% — no reimbursement yet</text>
  <text x="700" y="368" text-anchor="middle" font-size="14" font-weight="700" fill="#ffffff">0 → 100%</text>

  <!-- bottom note -->
  <rect x="80" y="424" width="880" height="50" rx="10" fill="#eef2ff" stroke="#c7d2fe"/>
  <text x="520" y="454" text-anchor="middle" font-size="15" fill="#3730a3">Because the two clocks run at different times, a project can be <tspan font-weight="700">done and paid for</tspan> while still <tspan font-weight="700">wide open to funding.</tspan></text>
</svg>
